<svg width="736" height="602" viewBox="0 0 736 602" fill="none" xmlns="http://www.w3.org/2000/svg">
<g clip-path="url(#clip0_213_774)">
<path d="M231.84 60C271.45 60.71 304.22 74.7299 331.29 102.13C361.48 132.7 391.71 163.23 421.93 193.77C428.62 200.53 428.54 201.46 421.93 208.14C396.05 234.3 370.15 260.46 344.44 286.8C329.03 302.59 313.15 317.54 293 327.44C236.5 355.22 167.33 340.15 127.37 291.46C110 270.29 98.8998 246.42 95.2998 219.43C89.9199 179.07 100.18 142.66 126.12 111.23C149.59 82.8205 179.91 66.0905 216.49 60.9805C217.31 60.8705 218.151 60.8195 218.98 60.7695C223.63 60.4895 228.29 60.21 231.84 60ZM510.42 65.4502C527.11 65.0302 539.91 70.46 551.32 82.21C579.27 111 607.75 139.27 635.89 167.88C651.14 183.38 651.01 211.851 635.7 227.471C605.15 258.641 574.38 289.59 543.98 320.91C533.58 331.63 521.74 336.67 506.63 336.41C473.98 335.85 441.31 336.301 408.65 336.301C407.05 336.301 405.45 336.01 403.85 335.86C403.55 335.32 403.25 334.77 402.95 334.23V334.221C446.58 290.151 490.21 246.09 534.4 201.45C489.73 156.59 445.19 111.87 399.7 66.1904C402.62 65.9604 404.03 65.7607 405.44 65.7607C440.44 65.7307 475.45 66.3402 510.42 65.4502Z" fill="url(#paint0_linear_213_774)"/>
<path d="M84.64 495.319C84.64 508.259 84.5 540 84.5 540C84.5 540 66.2 540 60 540C60 540 60 535.939 60 534.349C60.02 495.349 60 410.999 60 410.999C60 410.999 101.06 410.639 118.16 411.689C133.81 412.639 146.91 419.689 152.53 435.039C158.85 452.289 157.74 469.349 144.4 483.579C135.98 492.559 124.56 494.709 112.87 495.259C105.55 495.609 98.21 495.319 90.87 495.319C89.07 495.319 87.26 495.319 84.64 495.319ZM84.66 432.139C84.66 444.034 84.6441 468.913 84.6407 474.099C84.6403 474.643 85.064 475.069 85.6074 475.08C89.4546 475.157 103.772 475.399 110.18 474.899C126.14 473.659 133.82 463.509 131.32 447.639C129.96 438.969 125.42 433.179 116.71 432.359C106.38 431.389 95.89 432.129 84.66 432.129V432.139Z" fill="#1754AA"/>
<path d="M676 540H649C649 540 630.69 510.22 623.05 497.52C622.22 496.14 621.33 494.79 619.95 492.62C615.52 499.95 591 540 591 540C591 540 572.71 540 563.5 540C565.6 536.38 567.47 532.91 569.22 530.21C580.52 512.74 606 474 606 474L569.66 415.58L567 410.91H595C595 410.91 610.38 437.31 617.06 448.64C617.96 450.17 619.04 451.6 620.48 453.75C623.78 448.58 626.75 444.04 629.61 439.42C634.6 431.35 647 411 647 411C647 411 666.04 411 674 411C669.9 417.65 666.64 423.03 663.13 428.61C654.53 442.27 635 474 635 474L676 540Z" fill="#1754AA"/>
<path d="M253.39 540H231L230.92 533.209C230.92 533.209 230.94 503.229 230.95 488.239C230.95 486.569 230.94 484.909 230.85 483.249C230.43 475.599 228.09 468.879 220.05 466.399C212.05 463.929 203.85 464.169 197.77 470.679C195.04 473.599 191.85 478.54 191.63 482.5C190.81 497.78 191.25 524.669 191 539.979H169.2V411C175.95 411 191.63 411.039 191.63 411.039C191.63 411.039 191.64 441.639 191.63 454.799C191.63 456.369 191.63 457.949 191.63 459.519V460.5C203.15 447.72 223.85 442.129 239.02 450.389C248.51 455.549 252.79 464.349 253.12 474.269C253.84 495.389 253.39 540 253.39 540Z" fill="#1754AA"/>
<path d="M558.01 512.75C554.33 523.33 549.03 531.08 540.4 535.91C525.74 544.11 499.37 544.6 484.77 531.42C470.83 518.83 468.52 502.63 470.53 485.2C475 446.45 515.92 437.56 540.13 452.47C553.86 460.92 558.7 474.31 559.26 489.44V500C559.26 500 555.048 500.103 549 500.17C532.5 500.36 516.01 500.26 499.51 500.28C497.55 500.28 495.59 500.28 493.71 500.28C492.42 509.88 497.74 519.1 506.1 522.44C516.28 526.5 528.23 524.78 533.5 517C535.49 514.06 535.91 512.75 535.91 512.75C535.91 512.75 551.36 512.75 558 512.75H558.01ZM493.09 484.25H536.91C537.53 472.73 529.13 464.13 518.21 463.28C503.89 462.17 494.75 469.55 493.09 484.25Z" fill="#1754AA"/>
<path d="M360.89 493.771C361.07 523.321 343.07 541.451 313.4 541.591C285 541.721 265.75 522.801 265.6 494.601C265.44 465.271 284.13 445.871 312.63 445.811C342.05 445.741 360.72 464.291 360.89 493.781V493.771ZM336.5 478C333 468 324 463.5 315 464C304.5 464 296.07 467.771 291.68 477.611C287.17 487.711 287.32 498.051 291.02 508.271C294.56 518.031 301.92 523.241 312.25 523.681C322.51 524.121 332.02 518.101 336 508.271C338.08 503.151 340 488 336.5 478Z" fill="#1754AA"/>
<path d="M395.74 461.021C403.88 449.321 414.49 445.631 426.75 445.881C440.55 446.161 457.14 453.181 457.86 474.261C458.56 494.731 458.5 540 458.5 540H435.5C435.5 540 435.61 505.511 435.59 491.191C435.59 488.361 435.48 485.521 435.25 482.701C433.97 466.941 418.97 459.681 405.45 468.221C398.19 472.801 396.7 480.091 396.57 487.781C396.35 500.771 396.57 540 396.57 540C396.57 540 392.333 539.947 384 540C376.62 540.047 373 540 373 540L373 447H395.74C395.74 447 395.74 461.021 395.74 461.031V461.021Z" fill="#1754AA"/>
<path d="M360.89 493.771C361.07 523.321 343.07 541.451 313.4 541.591C285 541.721 265.75 522.801 265.6 494.601C265.44 465.271 284.13 445.871 312.63 445.811C342.05 445.741 360.72 464.291 360.89 493.781V493.771ZM336.71 481.981C334.41 471.651 326.85 465.101 316.56 464.141C304.9 463.051 296.07 467.771 291.68 477.611C287.17 487.711 287.32 498.051 291.02 508.271C294.56 518.031 301.92 523.241 312.25 523.681C322.51 524.121 330.6 520.081 334.58 510.251C336.66 505.131 339.01 492.311 336.71 481.981Z" fill="#1754AA"/>
</g>
<defs>
<linearGradient id="paint0_linear_213_774" x1="618" y1="117.5" x2="163.5" y2="297" gradientUnits="userSpaceOnUse">
<stop stop-color="#10CBF3"/>
<stop offset="1" stop-color="#1079E1"/>
</linearGradient>
<clipPath id="clip0_213_774">
<rect width="616.09" height="481.75" fill="white" transform="translate(60 60)"/>
</clipPath>
</defs>
</svg>
